<svg width="14" height="15" viewBox="0 0 14 15" fill="none" xmlns="http://www.w3.org/2000/svg">
<path d="M7.05817 11.5937L6.99984 11.6562L6.93567 11.5937C4.16484 8.9 2.33317 7.11875 2.33317 5.3125C2.33317 4.0625 3.20817 3.125 4.37484 3.125C5.27317 3.125 6.14817 3.75 6.45734 4.6H7.54234C7.8515 3.75 8.7265 3.125 9.62484 3.125C10.7915 3.125 11.6665 4.0625 11.6665 5.3125C11.6665 7.11875 9.83484 8.9 7.05817 11.5937ZM9.62484 1.875C8.60984 1.875 7.63567 2.38125 6.99984 3.175C6.364 2.38125 5.38984 1.875 4.37484 1.875C2.57817 1.875 1.1665 3.38125 1.1665 5.3125C1.1665 7.66875 3.14984 9.6 6.154 12.5188L6.99984 13.3438L7.84567 12.5188C10.8498 9.6 12.8332 7.66875 12.8332 5.3125C12.8332 3.38125 11.4215 1.875 9.62484 1.875Z" fill="#868686"/>
</svg>
