<svg width="41" height="38" viewBox="0 0 41 38" fill="none" xmlns="http://www.w3.org/2000/svg">
<path d="M29.3025 23.8994H27.4505L26.7942 23.3127C29.0915 20.8359 30.4746 17.6204 30.4746 14.1224C30.4746 6.32247 23.6529 0 15.2373 0C6.82161 0 0 6.32247 0 14.1224C0 21.9222 6.82161 28.2447 15.2373 28.2447C19.0114 28.2447 22.4808 26.9628 25.1532 24.8336L25.7862 25.442V27.1584L37.5071 38L41 34.7627L29.3025 23.8994ZM15.2373 23.8994C9.40023 23.8994 4.68839 19.5323 4.68839 14.1224C4.68839 8.71241 9.40023 4.34534 15.2373 4.34534C21.0743 4.34534 25.7862 8.71241 25.7862 14.1224C25.7862 19.5323 21.0743 23.8994 15.2373 23.8994Z" fill="#868686"/>
<path d="M17.7733 11.5067L15.6667 5L13.56 11.5067H7L12.36 15.7467L10.3067 22.3333L15.6667 18.2533L21.0267 22.3333L18.9733 15.7467L24.3333 11.5067H17.7733Z" fill="#868686"/>
</svg>
