<svg width="35" height="35" viewBox="0 0 35 35" fill="none" xmlns="http://www.w3.org/2000/svg">
<circle cx="17.5" cy="17.5" r="17.5" fill="white"/>
<path d="M18.6129 23.7625L13.1774 18.4433C13.1129 18.3799 13.0673 18.3113 13.0406 18.2375C13.0135 18.1636 13 18.0844 13 18C13 17.9156 13.0135 17.8364 13.0406 17.7625C13.0673 17.6887 13.1129 17.6201 13.1774 17.5567L18.6129 12.2216C18.7634 12.0739 18.9516 12 19.1774 12C19.4032 12 19.5968 12.0792 19.7581 12.2375C19.9194 12.3958 20 12.5805 20 12.7916C20 13.0026 19.9194 13.1873 19.7581 13.3456L15.0161 18L19.7581 22.6544C19.9086 22.8021 19.9839 22.9841 19.9839 23.2002C19.9839 23.4168 19.9032 23.6042 19.7419 23.7625C19.5806 23.9208 19.3925 24 19.1774 24C18.9624 24 18.7742 23.9208 18.6129 23.7625Z" fill="black"/>
</svg>
