<svg width="166" height="26" viewBox="0 0 176 26" fill="none" xmlns="http://www.w3.org/2000/svg">
<mask id="path-1-outside-1_44_650" maskUnits="userSpaceOnUse" x="-1" y="-1" width="168" height="28" fill="black">
<rect fill="white" x="-1" y="-1" width="168" height="28"/>
<path d="M8.0781 13.732V23.812L11.2101 24.136V25H0.194096V24.136L3.3261 23.812V2.14L0.194096 1.744V0.915999H18.5541V6.064H17.4021L16.0341 2.248L8.0781 2.14V12.436H15.0981L16.2141 9.772H17.2581V16.468H16.1781L15.0981 13.732H8.0781ZM47.3234 12.904C47.3234 16.504 46.1954 19.492 43.9394 21.868C41.7074 24.22 38.6834 25.396 34.8674 25.396C31.0754 25.396 28.0514 24.22 25.7954 21.868C23.5634 19.492 22.4474 16.504 22.4474 12.904C22.4474 9.304 23.5634 6.328 25.7954 3.976C28.0514 1.6 31.0754 0.411999 34.8674 0.411999C38.6834 0.411999 41.7074 1.6 43.9394 3.976C46.1954 6.328 47.3234 9.304 47.3234 12.904ZM34.9394 24.28C39.5474 24.28 41.8514 20.488 41.8514 12.904C41.8514 9.256 41.3234 6.448 40.2674 4.48C39.2354 2.512 37.4474 1.528 34.9034 1.528C32.3594 1.528 30.5474 2.512 29.4674 4.48C28.4114 6.448 27.8834 9.256 27.8834 12.904C27.8834 20.488 30.2354 24.28 34.9394 24.28ZM76.423 12.904C76.423 16.504 75.295 19.492 73.039 21.868C70.807 24.22 67.783 25.396 63.967 25.396C60.175 25.396 57.151 24.22 54.895 21.868C52.663 19.492 51.547 16.504 51.547 12.904C51.547 9.304 52.663 6.328 54.895 3.976C57.151 1.6 60.175 0.411999 63.967 0.411999C67.783 0.411999 70.807 1.6 73.039 3.976C75.295 6.328 76.423 9.304 76.423 12.904ZM64.039 24.28C68.647 24.28 70.951 20.488 70.951 12.904C70.951 9.256 70.423 6.448 69.367 4.48C68.335 2.512 66.547 1.528 64.003 1.528C61.459 1.528 59.647 2.512 58.567 4.48C57.511 6.448 56.983 9.256 56.983 12.904C56.983 20.488 59.335 24.28 64.039 24.28ZM106.178 12.94C106.178 20.98 101.186 25 91.2021 25H79.9341V24.136L83.0301 23.776V2.212L79.9341 1.78V0.844C81.0381 0.915999 82.3221 0.951998 83.7861 0.951998H87.2421L91.7061 0.807998C93.8901 0.807998 95.7981 0.987999 97.4301 1.348C99.0861 1.708 100.598 2.32 101.966 3.184C104.774 4.96 106.178 8.212 106.178 12.94ZM100.742 12.976C100.742 8.824 99.9621 5.944 98.4021 4.336C97.8981 3.784 97.4301 3.376 96.9981 3.112C96.5661 2.824 96.0261 2.608 95.3781 2.464C94.4901 2.248 93.4461 2.116 92.2461 2.068H91.7061C89.9541 2.068 88.6701 2.128 87.8541 2.248V23.74L91.2021 23.848C93.4821 23.752 95.1741 23.44 96.2781 22.912C99.2541 21.496 100.742 18.184 100.742 12.976ZM120.824 25H109.772V24.136L112.904 23.812V2.14L109.772 1.816V0.951998H120.824V1.816L117.692 2.14V23.812L120.824 24.136V25ZM124.282 25V24.136L127.414 23.812V2.14L124.282 1.816V0.951998H142.642V6.064H141.49L140.086 2.248L132.202 2.14V11.824H139.186L140.302 9.16H141.31V15.856H140.266L139.186 13.12H132.202V23.848L141.166 23.74L143.038 19.636H144.19L143.758 25H124.282ZM149.058 23.776C148.05 23.128 147.546 22.3 147.546 21.292C147.546 19.9 148.65 19.036 150.858 18.7C151.242 20.932 152.058 22.48 153.306 23.344C154.41 24.112 155.574 24.496 156.798 24.496C158.046 24.496 159.114 24.124 160.002 23.38C160.914 22.612 161.37 21.364 161.37 19.636C161.37 18.34 160.902 17.32 159.966 16.576C159.054 15.808 157.89 15.136 156.474 14.56C155.058 13.984 154.098 13.588 153.594 13.372C153.09 13.132 152.442 12.784 151.65 12.328C150.882 11.872 150.306 11.44 149.922 11.032C148.962 9.928 148.482 8.656 148.482 7.216C148.482 4.96 149.322 3.256 151.002 2.104C152.682 0.951999 155.022 0.375999 158.022 0.375999C159.726 0.375999 161.706 0.567999 163.962 0.951998V6.28H162.774L161.334 2.032C160.134 1.648 158.91 1.456 157.662 1.456C156.438 1.456 155.37 1.852 154.458 2.644C153.546 3.412 153.09 4.564 153.09 6.1C153.09 7.852 153.882 9.16 155.466 10.024C156.258 10.432 157.194 10.84 158.274 11.248C159.354 11.656 160.134 11.968 160.614 12.184C161.094 12.376 161.73 12.7 162.522 13.156C163.314 13.588 163.902 14.02 164.286 14.452C164.67 14.884 165.018 15.46 165.33 16.18C165.642 16.876 165.798 17.644 165.798 18.484C165.798 20.524 164.934 22.192 163.206 23.488C161.478 24.784 159.114 25.432 156.114 25.432C153.138 25.432 150.786 24.88 149.058 23.776Z"/>
</mask>
<path d="M8.0781 13.732V23.812L11.2101 24.136V25H0.194096V24.136L3.3261 23.812V2.14L0.194096 1.744V0.915999H18.5541V6.064H17.4021L16.0341 2.248L8.0781 2.14V12.436H15.0981L16.2141 9.772H17.2581V16.468H16.1781L15.0981 13.732H8.0781ZM47.3234 12.904C47.3234 16.504 46.1954 19.492 43.9394 21.868C41.7074 24.22 38.6834 25.396 34.8674 25.396C31.0754 25.396 28.0514 24.22 25.7954 21.868C23.5634 19.492 22.4474 16.504 22.4474 12.904C22.4474 9.304 23.5634 6.328 25.7954 3.976C28.0514 1.6 31.0754 0.411999 34.8674 0.411999C38.6834 0.411999 41.7074 1.6 43.9394 3.976C46.1954 6.328 47.3234 9.304 47.3234 12.904ZM34.9394 24.28C39.5474 24.28 41.8514 20.488 41.8514 12.904C41.8514 9.256 41.3234 6.448 40.2674 4.48C39.2354 2.512 37.4474 1.528 34.9034 1.528C32.3594 1.528 30.5474 2.512 29.4674 4.48C28.4114 6.448 27.8834 9.256 27.8834 12.904C27.8834 20.488 30.2354 24.28 34.9394 24.28ZM76.423 12.904C76.423 16.504 75.295 19.492 73.039 21.868C70.807 24.22 67.783 25.396 63.967 25.396C60.175 25.396 57.151 24.22 54.895 21.868C52.663 19.492 51.547 16.504 51.547 12.904C51.547 9.304 52.663 6.328 54.895 3.976C57.151 1.6 60.175 0.411999 63.967 0.411999C67.783 0.411999 70.807 1.6 73.039 3.976C75.295 6.328 76.423 9.304 76.423 12.904ZM64.039 24.28C68.647 24.28 70.951 20.488 70.951 12.904C70.951 9.256 70.423 6.448 69.367 4.48C68.335 2.512 66.547 1.528 64.003 1.528C61.459 1.528 59.647 2.512 58.567 4.48C57.511 6.448 56.983 9.256 56.983 12.904C56.983 20.488 59.335 24.28 64.039 24.28ZM106.178 12.94C106.178 20.98 101.186 25 91.2021 25H79.9341V24.136L83.0301 23.776V2.212L79.9341 1.78V0.844C81.0381 0.915999 82.3221 0.951998 83.7861 0.951998H87.2421L91.7061 0.807998C93.8901 0.807998 95.7981 0.987999 97.4301 1.348C99.0861 1.708 100.598 2.32 101.966 3.184C104.774 4.96 106.178 8.212 106.178 12.94ZM100.742 12.976C100.742 8.824 99.9621 5.944 98.4021 4.336C97.8981 3.784 97.4301 3.376 96.9981 3.112C96.5661 2.824 96.0261 2.608 95.3781 2.464C94.4901 2.248 93.4461 2.116 92.2461 2.068H91.7061C89.9541 2.068 88.6701 2.128 87.8541 2.248V23.74L91.2021 23.848C93.4821 23.752 95.1741 23.44 96.2781 22.912C99.2541 21.496 100.742 18.184 100.742 12.976ZM120.824 25H109.772V24.136L112.904 23.812V2.14L109.772 1.816V0.951998H120.824V1.816L117.692 2.14V23.812L120.824 24.136V25ZM124.282 25V24.136L127.414 23.812V2.14L124.282 1.816V0.951998H142.642V6.064H141.49L140.086 2.248L132.202 2.14V11.824H139.186L140.302 9.16H141.31V15.856H140.266L139.186 13.12H132.202V23.848L141.166 23.74L143.038 19.636H144.19L143.758 25H124.282ZM149.058 23.776C148.05 23.128 147.546 22.3 147.546 21.292C147.546 19.9 148.65 19.036 150.858 18.7C151.242 20.932 152.058 22.48 153.306 23.344C154.41 24.112 155.574 24.496 156.798 24.496C158.046 24.496 159.114 24.124 160.002 23.38C160.914 22.612 161.37 21.364 161.37 19.636C161.37 18.34 160.902 17.32 159.966 16.576C159.054 15.808 157.89 15.136 156.474 14.56C155.058 13.984 154.098 13.588 153.594 13.372C153.09 13.132 152.442 12.784 151.65 12.328C150.882 11.872 150.306 11.44 149.922 11.032C148.962 9.928 148.482 8.656 148.482 7.216C148.482 4.96 149.322 3.256 151.002 2.104C152.682 0.951999 155.022 0.375999 158.022 0.375999C159.726 0.375999 161.706 0.567999 163.962 0.951998V6.28H162.774L161.334 2.032C160.134 1.648 158.91 1.456 157.662 1.456C156.438 1.456 155.37 1.852 154.458 2.644C153.546 3.412 153.09 4.564 153.09 6.1C153.09 7.852 153.882 9.16 155.466 10.024C156.258 10.432 157.194 10.84 158.274 11.248C159.354 11.656 160.134 11.968 160.614 12.184C161.094 12.376 161.73 12.7 162.522 13.156C163.314 13.588 163.902 14.02 164.286 14.452C164.67 14.884 165.018 15.46 165.33 16.18C165.642 16.876 165.798 17.644 165.798 18.484C165.798 20.524 164.934 22.192 163.206 23.488C161.478 24.784 159.114 25.432 156.114 25.432C153.138 25.432 150.786 24.88 149.058 23.776Z" fill="black"/>
<path d="M8.0781 13.732V12.732H7.0781V13.732H8.0781ZM8.0781 23.812H7.0781V24.7139L7.9752 24.8067L8.0781 23.812ZM11.2101 24.136H12.2101V23.2341L11.313 23.1413L11.2101 24.136ZM11.2101 25V26H12.2101V25H11.2101ZM0.194096 25H-0.805904V26H0.194096V25ZM0.194096 24.136L0.0911961 23.1413L-0.805904 23.2341V24.136H0.194096ZM3.3261 23.812L3.429 24.8067L4.3261 24.7139V23.812H3.3261ZM3.3261 2.14H4.3261V1.25847L3.45153 1.1479L3.3261 2.14ZM0.194096 1.744H-0.805904V2.62552L0.0686588 2.7361L0.194096 1.744ZM0.194096 0.916V-0.0839996H-0.805904V0.916H0.194096ZM18.5541 0.916H19.5541V-0.0839996H18.5541V0.916ZM18.5541 6.064V7.064H19.5541V6.064H18.5541ZM17.4021 6.064L16.4608 6.40146L16.6983 7.064H17.4021V6.064ZM16.0341 2.248L16.9754 1.91054L16.7413 1.25751L16.0477 1.24809L16.0341 2.248ZM8.0781 2.14L8.09167 1.14009L7.0781 1.12633V2.14H8.0781ZM8.0781 12.436H7.0781V13.436H8.0781V12.436ZM15.0981 12.436V13.436H15.7634L16.0204 12.8224L15.0981 12.436ZM16.2141 9.772V8.772H15.5488L15.2918 9.38562L16.2141 9.772ZM17.2581 9.772H18.2581V8.772H17.2581V9.772ZM17.2581 16.468V17.468H18.2581V16.468H17.2581ZM16.1781 16.468L15.2479 16.8352L15.4977 17.468H16.1781V16.468ZM15.0981 13.732L16.0283 13.3648L15.7785 12.732H15.0981V13.732ZM7.0781 13.732V23.812H9.0781V13.732H7.0781ZM7.9752 24.8067L11.1072 25.1307L11.313 23.1413L8.181 22.8173L7.9752 24.8067ZM10.2101 24.136V25H12.2101V24.136H10.2101ZM11.2101 24H0.194096V26H11.2101V24ZM1.1941 25V24.136H-0.805904V25H1.1941ZM0.296995 25.1307L3.429 24.8067L3.2232 22.8173L0.0911961 23.1413L0.296995 25.1307ZM4.3261 23.812V2.14H2.3261V23.812H4.3261ZM3.45153 1.1479L0.319534 0.751896L0.0686588 2.7361L3.20066 3.1321L3.45153 1.1479ZM1.1941 1.744V0.916H-0.805904V1.744H1.1941ZM0.194096 1.916H18.5541V-0.0839996H0.194096V1.916ZM17.5541 0.916V6.064H19.5541V0.916H17.5541ZM18.5541 5.064H17.4021V7.064H18.5541V5.064ZM18.3434 5.72654L16.9754 1.91054L15.0928 2.58546L16.4608 6.40146L18.3434 5.72654ZM16.0477 1.24809L8.09167 1.14009L8.06452 3.13991L16.0205 3.24791L16.0477 1.24809ZM7.0781 2.14V12.436H9.0781V2.14H7.0781ZM8.0781 13.436H15.0981V11.436H8.0781V13.436ZM16.0204 12.8224L17.1364 10.1584L15.2918 9.38562L14.1758 12.0496L16.0204 12.8224ZM16.2141 10.772H17.2581V8.772H16.2141V10.772ZM16.2581 9.772V16.468H18.2581V9.772H16.2581ZM17.2581 15.468H16.1781V17.468H17.2581V15.468ZM17.1083 16.1008L16.0283 13.3648L14.1679 14.0992L15.2479 16.8352L17.1083 16.1008ZM15.0981 12.732H8.0781V14.732H15.0981V12.732ZM43.9394 21.868L43.2143 21.1794L43.2141 21.1796L43.9394 21.868ZM25.7954 21.868L25.0666 22.5527L25.0738 22.5602L25.7954 21.868ZM25.7954 3.976L25.0703 3.28744L25.0701 3.28764L25.7954 3.976ZM43.9394 3.976L43.2106 4.66071L43.2178 4.66822L43.9394 3.976ZM40.2674 4.48L39.3818 4.94443L39.3863 4.95282L40.2674 4.48ZM29.4674 4.48L28.5907 3.99888L28.5863 4.00718L29.4674 4.48ZM46.3234 12.904C46.3234 16.2753 45.2757 19.0084 43.2143 21.1794L44.6646 22.5566C47.1152 19.9756 48.3234 16.7327 48.3234 12.904H46.3234ZM43.2141 21.1796C41.2043 23.2974 38.4618 24.396 34.8674 24.396V26.396C38.9051 26.396 42.2106 25.1426 44.6648 22.5564L43.2141 21.1796ZM34.8674 24.396C31.2994 24.396 28.5534 23.2987 26.5171 21.1758L25.0738 22.5602C27.5495 25.1413 30.8515 26.396 34.8674 26.396V24.396ZM26.5243 21.1833C24.4853 19.0128 23.4474 16.2784 23.4474 12.904H21.4474C21.4474 16.7296 22.6416 19.9712 25.0666 22.5527L26.5243 21.1833ZM23.4474 12.904C23.4474 9.52946 24.4852 6.80941 26.5208 4.66436L25.0701 3.28764C22.6417 5.84658 21.4474 9.07854 21.4474 12.904H23.4474ZM26.5206 4.66455C28.5577 2.51915 31.3026 1.412 34.8674 1.412V-0.588001C30.8483 -0.588001 27.5452 0.680847 25.0703 3.28744L26.5206 4.66455ZM34.8674 1.412C38.4587 1.412 41.2001 2.52044 43.2106 4.66068L44.6683 3.29132C42.2148 0.679554 38.9082 -0.588001 34.8674 -0.588001V1.412ZM43.2178 4.66822C45.2758 6.81382 46.3234 9.53258 46.3234 12.904H48.3234C48.3234 9.07542 47.1151 5.84218 44.6611 3.28377L43.2178 4.66822ZM34.9394 25.28C37.5763 25.28 39.6363 24.1635 40.9781 21.9553C42.2708 19.8276 42.8514 16.7647 42.8514 12.904H40.8514C40.8514 16.6273 40.28 19.2524 39.2688 20.9167C38.3066 22.5005 36.9106 23.28 34.9394 23.28V25.28ZM42.8514 12.904C42.8514 9.18393 42.3171 6.18489 41.1486 4.00718L39.3863 4.95282C40.3298 6.71111 40.8514 9.32807 40.8514 12.904H42.8514ZM41.1531 4.01559C40.5543 2.87385 39.7159 1.98497 38.6346 1.38991C37.5608 0.798939 36.3031 0.528 34.9034 0.528V2.528C36.0478 2.528 36.9561 2.74906 37.6703 3.14209C38.377 3.53103 38.9485 4.11814 39.3818 4.94441L41.1531 4.01559ZM34.9034 0.528C32.0534 0.528 29.8731 1.66227 28.5908 3.9989L30.3441 4.9611C31.2218 3.36172 32.6654 2.528 34.9034 2.528V0.528ZM28.5863 4.00718C27.4178 6.18489 26.8834 9.18393 26.8834 12.904H28.8834C28.8834 9.32807 29.4051 6.71111 30.3486 4.95282L28.5863 4.00718ZM26.8834 12.904C26.8834 16.7669 27.4766 19.8333 28.7976 21.9631C30.1677 24.1719 32.2641 25.28 34.9394 25.28V23.28C32.9108 23.28 31.4792 22.4921 30.4972 20.9089C29.4663 19.2467 28.8834 16.6251 28.8834 12.904H26.8834ZM73.039 21.868L72.3138 21.1794L72.3136 21.1796L73.039 21.868ZM54.895 21.868L54.1661 22.5527L54.1733 22.5602L54.895 21.868ZM54.895 3.976L54.1698 3.28744L54.1696 3.28764L54.895 3.976ZM73.039 3.976L72.3101 4.66071L72.3173 4.66822L73.039 3.976ZM69.367 4.48L68.4813 4.94443L68.4858 4.95282L69.367 4.48ZM58.567 4.48L57.6903 3.99888L57.6858 4.00718L58.567 4.48ZM75.423 12.904C75.423 16.2753 74.3752 19.0084 72.3138 21.1794L73.7642 22.5566C76.2147 19.9756 77.423 16.7327 77.423 12.904H75.423ZM72.3136 21.1796C70.3038 23.2974 67.5614 24.396 63.967 24.396V26.396C68.0046 26.396 71.3101 25.1426 73.7643 22.5564L72.3136 21.1796ZM63.967 24.396C60.3989 24.396 57.653 23.2987 55.6166 21.1758L54.1733 22.5602C56.649 25.1413 59.951 26.396 63.967 26.396V24.396ZM55.6238 21.1833C53.5848 19.0128 52.547 16.2784 52.547 12.904H50.547C50.547 16.7296 51.7411 19.9712 54.1661 22.5527L55.6238 21.1833ZM52.547 12.904C52.547 9.52946 53.5847 6.80941 55.6203 4.66436L54.1696 3.28764C51.7412 5.84658 50.547 9.07854 50.547 12.904H52.547ZM55.6201 4.66455C57.6572 2.51915 60.4021 1.412 63.967 1.412V-0.588001C59.9479 -0.588001 56.6447 0.680847 54.1698 3.28744L55.6201 4.66455ZM63.967 1.412C67.5582 1.412 70.2996 2.52044 72.3101 4.66068L73.7678 3.29132C71.3143 0.679554 68.0077 -0.588001 63.967 -0.588001V1.412ZM72.3173 4.66822C74.3753 6.81382 75.423 9.53258 75.423 12.904H77.423C77.423 9.07542 76.2146 5.84218 73.7607 3.28377L72.3173 4.66822ZM64.039 25.28C66.6758 25.28 68.7359 24.1635 70.0776 21.9553C71.3704 19.8276 71.951 16.7647 71.951 12.904H69.951C69.951 16.6273 69.3796 19.2524 68.3684 20.9167C67.4061 22.5005 66.0101 23.28 64.039 23.28V25.28ZM71.951 12.904C71.951 9.18393 71.4166 6.18489 70.2481 4.00718L68.4858 4.95282C69.4293 6.71111 69.951 9.32807 69.951 12.904H71.951ZM70.2526 4.01559C69.6539 2.87385 68.8154 1.98497 67.7341 1.38991C66.6603 0.798939 65.4026 0.528 64.003 0.528V2.528C65.1473 2.528 66.0557 2.74906 66.7698 3.14209C67.4766 3.53103 68.0481 4.11814 68.4813 4.94441L70.2526 4.01559ZM64.003 0.528C61.153 0.528 58.9726 1.66227 57.6903 3.9989L59.4436 4.9611C60.3213 3.36172 61.765 2.528 64.003 2.528V0.528ZM57.6858 4.00718C56.5173 6.18489 55.983 9.18393 55.983 12.904H57.983C57.983 9.32807 58.5047 6.71111 59.4481 4.95282L57.6858 4.00718ZM55.983 12.904C55.983 16.7669 56.5761 19.8333 57.8972 21.9631C59.2672 24.1719 61.3637 25.28 64.039 25.28V23.28C62.0103 23.28 60.5787 22.4921 59.5968 20.9089C58.5658 19.2467 57.983 16.6251 57.983 12.904H55.983ZM79.9341 25H78.9341V26H79.9341V25ZM79.9341 24.136L79.8186 23.1427L78.9341 23.2455V24.136H79.9341ZM83.0301 23.776L83.1456 24.7693L84.0301 24.6665V23.776H83.0301ZM83.0301 2.212H84.0301V1.34185L83.1683 1.2216L83.0301 2.212ZM79.9341 1.78H78.9341V2.65015L79.7959 2.7704L79.9341 1.78ZM79.9341 0.844002L79.9992 -0.153881L78.9341 -0.223343V0.844002H79.9341ZM87.2421 0.952V1.952H87.2582L87.2743 1.95148L87.2421 0.952ZM91.7061 0.807999V-0.192001H91.69L91.6739 -0.191483L91.7061 0.807999ZM97.4301 1.348L97.2147 2.32453L97.2177 2.32518L97.4301 1.348ZM101.966 3.184L102.501 2.33886L102.5 2.33851L101.966 3.184ZM98.4021 4.336L97.6636 5.01027L97.6738 5.02145L97.6844 5.03231L98.4021 4.336ZM96.9981 3.112L96.4434 3.94405L96.4598 3.95499L96.4766 3.96528L96.9981 3.112ZM95.3781 2.464L95.1417 3.43567L95.1514 3.43802L95.1612 3.44019L95.3781 2.464ZM92.2461 2.068L92.2861 1.0688L92.2661 1.068H92.2461V2.068ZM87.8541 2.248L87.7086 1.25864L86.8541 1.3843V2.248H87.8541ZM87.8541 23.74H86.8541V24.7083L87.8219 24.7395L87.8541 23.74ZM91.2021 23.848L91.1699 24.8475L91.207 24.8487L91.2442 24.8471L91.2021 23.848ZM96.2781 22.912L95.8484 22.009L95.8466 22.0099L96.2781 22.912ZM105.178 12.94C105.178 16.7416 104.009 19.4332 101.807 21.2061C99.5638 23.0125 96.0861 24 91.2021 24V26C96.3021 26 100.312 24.9775 103.061 22.7639C105.852 20.5168 107.178 17.1784 107.178 12.94H105.178ZM91.2021 24H79.9341V26H91.2021V24ZM80.9341 25V24.136H78.9341V25H80.9341ZM80.0496 25.1293L83.1456 24.7693L82.9146 22.7827L79.8186 23.1427L80.0496 25.1293ZM84.0301 23.776V2.212H82.0301V23.776H84.0301ZM83.1683 1.2216L80.0723 0.789593L79.7959 2.7704L82.8919 3.2024L83.1683 1.2216ZM80.9341 1.78V0.844002H78.9341V1.78H80.9341ZM79.869 1.84188C81.0003 1.91566 82.3069 1.952 83.7861 1.952V-0.0480003C82.3373 -0.0480003 81.0759 -0.0836601 79.9992 -0.153881L79.869 1.84188ZM83.7861 1.952H87.2421V-0.0480003H83.7861V1.952ZM87.2743 1.95148L91.7383 1.80748L91.6739 -0.191483L87.2099 -0.0474815L87.2743 1.95148ZM91.7061 1.808C93.8384 1.808 95.6712 1.98404 97.2147 2.32452L97.6455 0.371475C95.925 -0.00803757 93.9418 -0.192001 91.7061 -0.192001V1.808ZM97.2177 2.32518C98.7651 2.66157 100.167 3.23073 101.432 4.02949L102.5 2.33851C101.029 1.40927 99.4071 0.754429 97.6425 0.370823L97.2177 2.32518ZM101.432 4.02914C103.837 5.55077 105.178 8.39651 105.178 12.94H107.178C107.178 8.02749 105.711 4.36923 102.501 2.33886L101.432 4.02914ZM101.742 12.976C101.742 8.76296 100.963 5.54003 99.1198 3.63969L97.6844 5.03231C98.9607 6.34797 99.7421 8.88504 99.7421 12.976H101.742ZM99.1406 3.66173C98.6002 3.06992 98.0603 2.58921 97.5195 2.25872L96.4766 3.96528C96.7998 4.16279 97.196 4.49808 97.6636 5.01027L99.1406 3.66173ZM97.5528 2.27995C96.9939 1.90734 96.3315 1.65147 95.595 1.48781L95.1612 3.44019C95.7207 3.56453 96.1383 3.74066 96.4434 3.94405L97.5528 2.27995ZM95.6144 1.49233C94.6456 1.25668 93.5329 1.11867 92.2861 1.0688L92.2061 3.0672C93.3593 3.11332 94.3345 3.23932 95.1417 3.43567L95.6144 1.49233ZM92.2461 1.068H91.7061V3.068H92.2461V1.068ZM91.7061 1.068C89.9469 1.068 88.6013 1.12736 87.7086 1.25864L87.9996 3.23736C88.7389 3.12864 89.9613 3.068 91.7061 3.068V1.068ZM86.8541 2.248V23.74H88.8541V2.248H86.8541ZM87.8219 24.7395L91.1699 24.8475L91.2343 22.8485L87.8863 22.7405L87.8219 24.7395ZM91.2442 24.8471C93.5626 24.7495 95.4193 24.4312 96.7095 23.8141L95.8466 22.0099C94.9289 22.4488 93.4016 22.7545 91.16 22.8489L91.2442 24.8471ZM96.7077 23.815C100.21 22.1486 101.742 18.3232 101.742 12.976H99.7421C99.7421 18.0448 98.2982 20.8434 95.8484 22.009L96.7077 23.815ZM120.824 25V26H121.824V25H120.824ZM109.772 25H108.772V26H109.772V25ZM109.772 24.136L109.669 23.1413L108.772 23.2341V24.136H109.772ZM112.904 23.812L113.007 24.8067L113.904 24.7139V23.812H112.904ZM112.904 2.14H113.904V1.23811L113.007 1.14531L112.904 2.14ZM109.772 1.816H108.772V2.71789L109.669 2.81069L109.772 1.816ZM109.772 0.952V-0.0480003H108.772V0.952H109.772ZM120.824 0.952H121.824V-0.0480003H120.824V0.952ZM120.824 1.816L120.927 2.81069L121.824 2.71789V1.816H120.824ZM117.692 2.14L117.589 1.14531L116.692 1.23811V2.14H117.692ZM117.692 23.812H116.692V24.7139L117.589 24.8067L117.692 23.812ZM120.824 24.136H121.824V23.2341L120.927 23.1413L120.824 24.136ZM120.824 24H109.772V26H120.824V24ZM110.772 25V24.136H108.772V25H110.772ZM109.875 25.1307L113.007 24.8067L112.801 22.8173L109.669 23.1413L109.875 25.1307ZM113.904 23.812V2.14H111.904V23.812H113.904ZM113.007 1.14531L109.875 0.821308L109.669 2.81069L112.801 3.13469L113.007 1.14531ZM110.772 1.816V0.952H108.772V1.816H110.772ZM109.772 1.952H120.824V-0.0480003H109.772V1.952ZM119.824 0.952V1.816H121.824V0.952H119.824ZM120.721 0.821308L117.589 1.14531L117.795 3.13469L120.927 2.81069L120.721 0.821308ZM116.692 2.14V23.812H118.692V2.14H116.692ZM117.589 24.8067L120.721 25.1307L120.927 23.1413L117.795 22.8173L117.589 24.8067ZM119.824 24.136V25H121.824V24.136H119.824ZM124.282 25H123.282V26H124.282V25ZM124.282 24.136L124.179 23.1413L123.282 23.2341V24.136H124.282ZM127.414 23.812L127.516 24.8067L128.414 24.7139V23.812H127.414ZM127.414 2.14H128.414V1.23811L127.516 1.14531L127.414 2.14ZM124.282 1.816H123.282V2.71789L124.179 2.81069L124.282 1.816ZM124.282 0.952V-0.0480003H123.282V0.952H124.282ZM142.642 0.952H143.642V-0.0480003H142.642V0.952ZM142.642 6.064V7.064H143.642V6.064H142.642ZM141.49 6.064L140.551 6.40929L140.792 7.064H141.49V6.064ZM140.086 2.248L141.024 1.9027L140.787 1.25751L140.099 1.24809L140.086 2.248ZM132.202 2.14L132.215 1.14009L131.202 1.12621V2.14H132.202ZM132.202 11.824H131.202V12.824H132.202V11.824ZM139.186 11.824V12.824H139.851L140.108 12.2104L139.186 11.824ZM140.302 9.16V8.16H139.636L139.379 8.77361L140.302 9.16ZM141.31 9.16H142.31V8.16H141.31V9.16ZM141.31 15.856V16.856H142.31V15.856H141.31ZM140.266 15.856L139.335 16.2232L139.585 16.856H140.266V15.856ZM139.186 13.12L140.116 12.7528L139.866 12.12H139.186V13.12ZM132.202 13.12V12.12H131.202V13.12H132.202ZM132.202 23.848H131.202V24.8601L132.214 24.8479L132.202 23.848ZM141.166 23.74L141.178 24.7399L141.812 24.7323L142.075 24.155L141.166 23.74ZM143.038 19.636V18.636H142.395L142.128 19.221L143.038 19.636ZM144.19 19.636L145.186 19.7163L145.273 18.636H144.19V19.636ZM143.758 25V26H144.68L144.754 25.0803L143.758 25ZM125.282 25V24.136H123.282V25H125.282ZM124.384 25.1307L127.516 24.8067L127.311 22.8173L124.179 23.1413L124.384 25.1307ZM128.414 23.812V2.14H126.414V23.812H128.414ZM127.516 1.14531L124.384 0.821308L124.179 2.81069L127.311 3.13469L127.516 1.14531ZM125.282 1.816V0.952H123.282V1.816H125.282ZM124.282 1.952H142.642V-0.0480003H124.282V1.952ZM141.642 0.952V6.064H143.642V0.952H141.642ZM142.642 5.064H141.49V7.064H142.642V5.064ZM142.428 5.7187L141.024 1.9027L139.147 2.59329L140.551 6.40929L142.428 5.7187ZM140.099 1.24809L132.215 1.14009L132.188 3.1399L140.072 3.24791L140.099 1.24809ZM131.202 2.14V11.824H133.202V2.14H131.202ZM132.202 12.824H139.186V10.824H132.202V12.824ZM140.108 12.2104L141.224 9.54638L139.379 8.77361L138.263 11.4376L140.108 12.2104ZM140.302 10.16H141.31V8.16H140.302V10.16ZM140.31 9.16V15.856H142.31V9.16H140.31ZM141.31 14.856H140.266V16.856H141.31V14.856ZM141.196 15.4888L140.116 12.7528L138.255 13.4872L139.335 16.2232L141.196 15.4888ZM139.186 12.12H132.202V14.12H139.186V12.12ZM131.202 13.12V23.848H133.202V13.12H131.202ZM132.214 24.8479L141.178 24.7399L141.154 22.7401L132.19 22.8481L132.214 24.8479ZM142.075 24.155L143.947 20.051L142.128 19.221L140.256 23.325L142.075 24.155ZM143.038 20.636H144.19V18.636H143.038V20.636ZM143.193 19.5557L142.761 24.9197L144.754 25.0803L145.186 19.7163L143.193 19.5557ZM143.758 24H124.282V26H143.758V24ZM149.058 23.776L148.517 24.6172L148.52 24.6187L149.058 23.776ZM150.858 18.7L151.844 18.5304L151.677 17.5638L150.708 17.7114L150.858 18.7ZM153.306 23.344L153.877 22.5231L153.875 22.5218L153.306 23.344ZM160.002 23.38L160.644 24.1465L160.646 24.1449L160.002 23.38ZM159.966 16.576L159.322 17.3409L159.333 17.35L159.344 17.3588L159.966 16.576ZM156.474 14.56L156.851 13.6337L156.474 14.56ZM153.594 13.372L153.164 14.2749L153.182 14.2834L153.2 14.2911L153.594 13.372ZM151.65 12.328L151.139 13.1879L151.151 13.1946L151.65 12.328ZM149.922 11.032L149.167 11.6882L149.18 11.703L149.194 11.7174L149.922 11.032ZM151.002 2.104L150.436 1.27927L151.002 2.104ZM163.962 0.952H164.962V0.10783L164.13 -0.0338211L163.962 0.952ZM163.962 6.28V7.28H164.962V6.28H163.962ZM162.774 6.28L161.827 6.60104L162.057 7.28H162.774V6.28ZM161.334 2.032L162.281 1.71096L162.119 1.2333L161.639 1.07957L161.334 2.032ZM154.458 2.644L155.102 3.40891L155.108 3.40401L155.114 3.39903L154.458 2.644ZM155.466 10.024L154.987 10.9019L154.998 10.9076L155.008 10.913L155.466 10.024ZM158.274 11.248L158.627 10.3125L158.274 11.248ZM160.614 12.184L160.204 13.0959L160.223 13.1046L160.243 13.1125L160.614 12.184ZM162.522 13.156L162.023 14.0226L162.033 14.0284L162.043 14.0339L162.522 13.156ZM164.286 14.452L163.539 15.1164L164.286 14.452ZM165.33 16.18L164.412 16.5776L164.418 16.5891L165.33 16.18ZM163.206 23.488L162.606 22.688L163.206 23.488ZM149.599 22.9348C148.814 22.4305 148.546 21.8914 148.546 21.292H146.546C146.546 22.7086 147.286 23.8255 148.517 24.6172L149.599 22.9348ZM148.546 21.292C148.546 20.9061 148.678 20.6315 148.99 20.3875C149.349 20.1065 149.984 19.8446 151.008 19.6886L150.708 17.7114C149.525 17.8914 148.503 18.2295 147.758 18.8125C146.966 19.4325 146.546 20.2859 146.546 21.292H148.546ZM149.872 18.8696C150.28 21.2368 151.18 23.0881 152.737 24.1662L153.875 22.5218C152.937 21.8719 152.204 20.6272 151.844 18.5304L149.872 18.8696ZM152.735 24.1649C153.989 25.0375 155.35 25.496 156.798 25.496V23.496C155.798 23.496 154.831 23.1865 153.877 22.5231L152.735 24.1649ZM156.798 25.496C158.261 25.496 159.562 25.0534 160.644 24.1465L159.36 22.6135C158.666 23.1946 157.831 23.496 156.798 23.496V25.496ZM160.646 24.1449C161.871 23.1137 162.37 21.5225 162.37 19.636H160.37C160.37 21.2055 159.957 22.1103 159.358 22.6151L160.646 24.1449ZM162.37 19.636C162.37 18.0645 161.785 16.7444 160.588 15.7932L159.344 17.3588C160.019 17.8956 160.37 18.6155 160.37 19.636H162.37ZM160.61 15.8111C159.599 14.9597 158.338 14.2386 156.851 13.6337L156.097 15.4863C157.442 16.0334 158.509 16.6563 159.322 17.3409L160.61 15.8111ZM156.851 13.6337C155.434 13.0573 154.482 12.6647 153.988 12.4529L153.2 14.2911C153.714 14.5113 154.682 14.9107 156.097 15.4863L156.851 13.6337ZM154.024 12.4691C153.553 12.2451 152.931 11.9114 152.149 11.4614L151.151 13.1946C151.953 13.6566 152.627 14.0189 153.164 14.2749L154.024 12.4691ZM152.161 11.4681C151.431 11.0351 150.944 10.6586 150.65 10.3466L149.194 11.7174C149.668 12.2214 150.333 12.7089 151.139 13.1879L152.161 11.4681ZM150.677 10.3758C149.872 9.4506 149.482 8.41063 149.482 7.216H147.482C147.482 8.90136 148.052 10.4054 149.167 11.6882L150.677 10.3758ZM149.482 7.216C149.482 5.24821 150.192 3.87195 151.568 2.92873L150.436 1.27927C148.452 2.64005 147.482 4.67178 147.482 7.216H149.482ZM151.568 2.92873C153.019 1.93313 155.133 1.376 158.022 1.376V-0.624001C154.911 -0.624001 152.345 -0.029129 150.436 1.27927L151.568 2.92873ZM158.022 1.376C159.654 1.376 161.576 1.56028 163.794 1.93782L164.13 -0.0338211C161.836 -0.424278 159.798 -0.624001 158.022 -0.624001V1.376ZM162.962 0.952V6.28H164.962V0.952H162.962ZM163.962 5.28H162.774V7.28H163.962V5.28ZM163.721 5.95896L162.281 1.71096L160.387 2.35304L161.827 6.60104L163.721 5.95896ZM161.639 1.07957C160.341 0.664356 159.014 0.455997 157.662 0.455997V2.456C158.806 2.456 159.927 2.63164 161.029 2.98442L161.639 1.07957ZM157.662 0.455997C156.201 0.455997 154.899 0.936684 153.802 1.88897L155.114 3.39903C155.841 2.76731 156.675 2.456 157.662 2.456V0.455997ZM153.814 1.87909C152.615 2.88903 152.09 4.36048 152.09 6.1H154.09C154.09 4.76752 154.477 3.93497 155.102 3.40891L153.814 1.87909ZM152.09 6.1C152.09 7.13147 152.325 8.08105 152.829 8.91295C153.331 9.74331 154.068 10.4006 154.987 10.9019L155.945 9.1461C155.28 8.78338 154.829 8.35469 154.539 7.87704C154.251 7.40095 154.09 6.82053 154.09 6.1H152.09ZM155.008 10.913C155.842 11.3427 156.815 11.7657 157.921 12.1835L158.627 10.3125C157.573 9.91431 156.674 9.52132 155.924 9.13503L155.008 10.913ZM157.921 12.1835C158.998 12.5907 159.754 12.8935 160.204 13.0959L161.024 11.2721C160.514 11.0425 159.71 10.7213 158.627 10.3125L157.921 12.1835ZM160.243 13.1125C160.658 13.2785 161.246 13.5753 162.023 14.0226L163.021 12.2894C162.214 11.8247 161.53 11.4735 160.985 11.2555L160.243 13.1125ZM162.043 14.0339C162.784 14.4381 163.262 14.8048 163.539 15.1164L165.033 13.7876C164.542 13.2352 163.844 12.7379 163.001 12.2781L162.043 14.0339ZM163.539 15.1164C163.832 15.4464 164.129 15.9226 164.412 16.5776L166.248 15.7824C165.907 14.9974 165.508 14.3216 165.033 13.7876L163.539 15.1164ZM164.418 16.5891C164.666 17.1439 164.798 17.7706 164.798 18.484H166.798C166.798 17.5174 166.618 16.6081 166.243 15.7709L164.418 16.5891ZM164.798 18.484C164.798 20.1883 164.099 21.5679 162.606 22.688L163.806 24.288C165.769 22.8161 166.798 20.8597 166.798 18.484H164.798ZM162.606 22.688C161.107 23.8122 158.98 24.432 156.114 24.432V26.432C159.248 26.432 161.849 25.7558 163.806 24.288L162.606 22.688ZM156.114 24.432C153.247 24.432 151.107 23.8981 149.596 22.9333L148.52 24.6187C150.465 25.8619 153.029 26.432 156.114 26.432V24.432Z" fill="black" mask="url(#path-1-outside-1_44_650)"/>
</svg>
