<svg width="39" height="37" viewBox="0 0 39 37" fill="none" xmlns="http://www.w3.org/2000/svg">
<path d="M19.6625 28.5979L19.5 28.7521L19.3213 28.5979C11.6025 21.9533 6.5 17.5596 6.5 13.1042C6.5 10.0208 8.9375 7.70833 12.1875 7.70833C14.69 7.70833 17.1275 9.25 17.9888 11.3467H21.0113C21.8725 9.25 24.31 7.70833 26.8125 7.70833C30.0625 7.70833 32.5 10.0208 32.5 13.1042C32.5 17.5596 27.3975 21.9533 19.6625 28.5979ZM26.8125 4.625C23.985 4.625 21.2713 5.87375 19.5 7.83167C17.7288 5.87375 15.015 4.625 12.1875 4.625C7.1825 4.625 3.25 8.34042 3.25 13.1042C3.25 18.9162 8.775 23.68 17.1438 30.8796L19.5 32.9146L21.8563 30.8796C30.225 23.68 35.75 18.9162 35.75 13.1042C35.75 8.34042 31.8175 4.625 26.8125 4.625Z" fill="white"/>
</svg>
