<svg version="1.0" xmlns="http://www.w3.org/2000/svg" width="200" height="256" viewBox="0 0 167 78">
    <g id="svg1">
        <path d="M52.7 16.6c-.4.4-.7 5.8-.7 11.9 0 8.8.3 11.5 1.5 12.5s1.8 1 3 0c1.3-1.1 1.5-3.5 1.3-12.9-.3-10.8-.4-11.6-2.3-11.9-1.2-.2-2.4 0-2.8.4zM39.7 26.6c-.4.4-.7 3.5-.7 6.9 0 7 1.7 9.8 4.5 7.5 1.2-1 1.5-2.9 1.3-7.9-.3-5.8-.6-6.6-2.3-6.9-1.2-.2-2.4 0-2.8.4zM65.7 26.6c-.4.4-.7 3.8-.7 7.5 0 5.2.3 6.8 1.6 7.3 3.2 1.2 4.5-1.3 4.2-8.3-.3-5.8-.6-6.6-2.3-6.9-1.2-.2-2.4 0-2.8.4zM91.9 45l-3.7 3-35.3.2-35.4.3-.3 2.2c-.4 2.7 4.3 16.1 6.6 18.7 3.7 4.1 7.1 4.6 31.1 4.6 13.8 0 24.1-.4 25.8-1.1 4.8-1.8 7.1-4.9 9.8-12.9 3.4-10.1 4.8-11.4 13.9-12 6.8-.5 7.1-.6 7.1-3s-.2-2.5-8-2.8c-7.6-.2-8.2-.1-11.6 2.8z"/>
    </g>
    <g id="svg2" transform="translate(0, 80)">
        <path fill="#fff" d="M-1-1h168v28H-1z"/><path d="M8.078 13.732v10.08l3.132.324V25H.194v-.864l3.132-.324V2.14L.194 1.744V.916h18.36v5.148h-1.152l-1.368-3.816-7.956-.108v10.296h7.02l1.116-2.664h1.044v6.696h-1.08l-1.08-2.736h-7.02zm39.245-.828c0 3.6-1.128 6.588-3.384 8.964-2.232 2.352-5.256 3.528-9.072 3.528-3.792 0-6.816-1.176-9.072-3.528-2.232-2.376-3.348-5.364-3.348-8.964 0-3.6 1.116-6.576 3.348-8.928C28.051 1.6 31.075.412 34.867.412c3.816 0 6.84 1.188 9.072 3.564 2.256 2.352 3.384 5.328 3.384 8.928zM34.94 24.28c4.608 0 6.912-3.792 6.912-11.376 0-3.648-.528-6.456-1.584-8.424-1.032-1.968-2.82-2.952-5.364-2.952s-4.356.984-5.436 2.952c-1.056 1.968-1.584 4.776-1.584 8.424 0 7.584 2.352 11.376 7.056 11.376zm41.484-11.376c0 3.6-1.128 6.588-3.384 8.964-2.232 2.352-5.256 3.528-9.072 3.528-3.792 0-6.816-1.176-9.072-3.528-2.232-2.376-3.348-5.364-3.348-8.964 0-3.6 1.116-6.576 3.348-8.928C57.151 1.6 60.175.412 63.967.412c3.816 0 6.84 1.188 9.072 3.564 2.256 2.352 3.384 5.328 3.384 8.928zM64.039 24.28c4.608 0 6.912-3.792 6.912-11.376 0-3.648-.528-6.456-1.584-8.424-1.032-1.968-2.82-2.952-5.364-2.952s-4.356.984-5.436 2.952c-1.056 1.968-1.584 4.776-1.584 8.424 0 7.584 2.352 11.376 7.056 11.376zm42.139-11.34c0 8.04-4.992 12.06-14.976 12.06H79.934v-.864l3.096-.36V2.212l-3.096-.432V.844c1.104.072 2.388.108 3.852.108h3.456l4.464-.144c2.184 0 4.092.18 5.724.54 1.656.36 3.168.972 4.536 1.836 2.808 1.776 4.212 5.028 4.212 9.756zm-5.436.036c0-4.152-.78-7.032-2.34-8.64-.504-.552-.972-.96-1.404-1.224-.432-.288-.972-.504-1.62-.648-.888-.216-1.932-.348-3.132-.396h-.54c-1.752 0-3.036.06-3.852.18V23.74l3.348.108c2.28-.096 3.972-.408 5.076-.936 2.976-1.416 4.464-4.728 4.464-9.936zM120.824 25h-11.052v-.864l3.132-.324V2.14l-3.132-.324V.952h11.052v.864l-3.132.324v21.672l3.132.324V25zm3.458 0v-.864l3.132-.324V2.14l-3.132-.324V.952h18.36v5.112h-1.152l-1.404-3.816-7.884-.108v9.684h6.984l1.116-2.664h1.008v6.696h-1.044l-1.08-2.736h-6.984v10.728l8.964-.108 1.872-4.104h1.152L143.758 25h-19.476zm24.776-1.224c-1.008-.648-1.512-1.476-1.512-2.484 0-1.392 1.104-2.256 3.312-2.592.384 2.232 1.2 3.78 2.448 4.644 1.104.768 2.268 1.152 3.492 1.152 1.248 0 2.316-.372 3.204-1.116.912-.768 1.368-2.016 1.368-3.744 0-1.296-.468-2.316-1.404-3.06-.912-.768-2.076-1.44-3.492-2.016a204 204 0 01-2.88-1.188 29.608 29.608 0 01-1.944-1.044c-.768-.456-1.344-.888-1.728-1.296-.96-1.104-1.44-2.376-1.44-3.816 0-2.256.84-3.96 2.52-5.112 1.68-1.152 4.02-1.728 7.02-1.728 1.704 0 3.684.192 5.94.576V6.28h-1.188l-1.44-4.248a11.978 11.978 0 00-3.672-.576c-1.224 0-2.292.396-3.204 1.188-.912.768-1.368 1.92-1.368 3.456 0 1.752.792 3.06 2.376 3.924.792.408 1.728.816 2.808 1.224 1.08.408 1.86.72 2.34.936.48.192 1.116.516 1.908.972.792.432 1.38.864 1.764 1.296.384.432.732 1.008 1.044 1.728.312.696.468 1.464.468 2.304 0 2.04-.864 3.708-2.592 5.004-1.728 1.296-4.092 1.944-7.092 1.944-2.976 0-5.328-.552-7.056-1.656z"/><path d="M8.078 13.732v10.08l3.132.324V25H.194v-.864l3.132-.324V2.14L.194 1.744V.916h18.36v5.148h-1.152l-1.368-3.816-7.956-.108v10.296h7.02l1.116-2.664h1.044v6.696h-1.08l-1.08-2.736h-7.02zm39.245-.828c0 3.6-1.128 6.588-3.384 8.964-2.232 2.352-5.256 3.528-9.072 3.528-3.792 0-6.816-1.176-9.072-3.528-2.232-2.376-3.348-5.364-3.348-8.964 0-3.6 1.116-6.576 3.348-8.928C28.051 1.6 31.075.412 34.867.412c3.816 0 6.84 1.188 9.072 3.564 2.256 2.352 3.384 5.328 3.384 8.928zM34.94 24.28c4.608 0 6.912-3.792 6.912-11.376 0-3.648-.528-6.456-1.584-8.424-1.032-1.968-2.82-2.952-5.364-2.952s-4.356.984-5.436 2.952c-1.056 1.968-1.584 4.776-1.584 8.424 0 7.584 2.352 11.376 7.056 11.376zm41.484-11.376c0 3.6-1.128 6.588-3.384 8.964-2.232 2.352-5.256 3.528-9.072 3.528-3.792 0-6.816-1.176-9.072-3.528-2.232-2.376-3.348-5.364-3.348-8.964 0-3.6 1.116-6.576 3.348-8.928C57.151 1.6 60.175.412 63.967.412c3.816 0 6.84 1.188 9.072 3.564 2.256 2.352 3.384 5.328 3.384 8.928zM64.039 24.28c4.608 0 6.912-3.792 6.912-11.376 0-3.648-.528-6.456-1.584-8.424-1.032-1.968-2.82-2.952-5.364-2.952s-4.356.984-5.436 2.952c-1.056 1.968-1.584 4.776-1.584 8.424 0 7.584 2.352 11.376 7.056 11.376zm42.139-11.34c0 8.04-4.992 12.06-14.976 12.06H79.934v-.864l3.096-.36V2.212l-3.096-.432V.844c1.104.072 2.388.108 3.852.108h3.456l4.464-.144c2.184 0 4.092.18 5.724.54 1.656.36 3.168.972 4.536 1.836 2.808 1.776 4.212 5.028 4.212 9.756zm-5.436.036c0-4.152-.78-7.032-2.34-8.64-.504-.552-.972-.96-1.404-1.224-.432-.288-.972-.504-1.62-.648-.888-.216-1.932-.348-3.132-.396h-.54c-1.752 0-3.036.06-3.852.18V23.74l3.348.108c2.28-.096 3.972-.408 5.076-.936 2.976-1.416 4.464-4.728 4.464-9.936zM120.824 25h-11.052v-.864l3.132-.324V2.14l-3.132-.324V.952h11.052v.864l-3.132.324v21.672l3.132.324V25zm3.458 0v-.864l3.132-.324V2.14l-3.132-.324V.952h18.36v5.112h-1.152l-1.404-3.816-7.884-.108v9.684h6.984l1.116-2.664h1.008v6.696h-1.044l-1.08-2.736h-6.984v10.728l8.964-.108 1.872-4.104h1.152L143.758 25h-19.476zm24.776-1.224c-1.008-.648-1.512-1.476-1.512-2.484 0-1.392 1.104-2.256 3.312-2.592.384 2.232 1.2 3.78 2.448 4.644 1.104.768 2.268 1.152 3.492 1.152 1.248 0 2.316-.372 3.204-1.116.912-.768 1.368-2.016 1.368-3.744 0-1.296-.468-2.316-1.404-3.06-.912-.768-2.076-1.44-3.492-2.016a204 204 0 01-2.88-1.188 29.608 29.608 0 01-1.944-1.044c-.768-.456-1.344-.888-1.728-1.296-.96-1.104-1.44-2.376-1.44-3.816 0-2.256.84-3.96 2.52-5.112 1.68-1.152 4.02-1.728 7.02-1.728 1.704 0 3.684.192 5.94.576V6.28h-1.188l-1.44-4.248a11.978 11.978 0 00-3.672-.576c-1.224 0-2.292.396-3.204 1.188-.912.768-1.368 1.92-1.368 3.456 0 1.752.792 3.06 2.376 3.924.792.408 1.728.816 2.808 1.224 1.08.408 1.86.72 2.34.936.48.192 1.116.516 1.908.972.792.432 1.38.864 1.764 1.296.384.432.732 1.008 1.044 1.728.312.696.468 1.464.468 2.304 0 2.04-.864 3.708-2.592 5.004-1.728 1.296-4.092 1.944-7.092 1.944-2.976 0-5.328-.552-7.056-1.656z"/><path d="M8.078 13.732v-1h-1v1h1zm0 10.08h-1v.902l.897.093.103-.995zm3.132.324h1v-.902l-.897-.093-.103.995zm0 .864v1h1v-1h-1zM.194 25h-1v1h1v-1zm0-.864l-.103-.995-.897.093v.902h1zm3.132-.324l.103.995.897-.093v-.902h-1zm0-21.672h1v-.882l-.874-.11-.126.992zM.194 1.744h-1v.882l.875.11.125-.992zm0-.828v-1h-1v1h1zm18.36 0h1v-1h-1v1zm0 5.148v1h1v-1h-1zm-1.152 0l-.941.337.237.663h.704v-1zm-1.368-3.816l.941-.337-.234-.653-.693-.01-.014 1zM8.078 2.14l.014-1-1.014-.014V2.14h1zm0 10.296h-1v1h1v-1zm7.02 0v1h.665l.257-.614-.922-.386zm1.116-2.664v-1h-.665l-.257.614.922.386zm1.044 0h1v-1h-1v1zm0 6.696v1h1v-1h-1zm-1.08 0l-.93.367.25.633h.68v-1zm-1.08-2.736l.93-.367-.25-.633h-.68v1zm-8.02 0v10.08h2v-10.08h-2zm.897 11.075l3.132.324.206-1.99-3.132-.324-.206 1.99zm2.235-.671V25h2v-.864h-2zm1-.136H.194v2H11.21v-2zM1.194 25v-.864h-2V25h2zm-.897.13l3.132-.323-.206-1.99-3.132.324.206 1.99zm4.03-1.318V2.14h-2v21.672h2zM3.451 1.148L.32.752.069 2.736l3.132.396.25-1.984zm-2.258.596V.916h-2v.828h2zm-1 .172h18.36v-2H.194v2zm17.36-1v5.148h2V.916h-2zm1 4.148h-1.152v2h1.152v-2zm-.21.663L16.974 1.91l-1.882.674L16.46 6.4l1.882-.674zm-2.296-4.479L8.092 1.14l-.027 2 7.955.108.028-2zm-8.97.892v10.296h2V2.14h-2zm1 11.296h7.02v-2h-7.02v2zm7.942-.614l1.116-2.664-1.844-.772-1.116 2.664 1.844.772zm.194-2.05h1.044v-2h-1.044v2zm.044-1v6.696h2V9.772h-2zm1 5.696h-1.08v2h1.08v-2zm-.15.633l-1.08-2.736-1.86.734 1.08 2.736 1.86-.734zm-2.01-3.369h-7.02v2h7.02v-2zm28.841 9.136l-.725-.689.725.689zm-18.144 0l-.728.685.007.007.721-.692zm0-17.892l-.725-.689.725.689zm18.144 0l-.728.685.007.007.721-.692zm-3.672.504l-.885.464.004.009.881-.473zm-10.8 0l-.876-.481-.005.008.881.473zm16.856 8.424c0 3.371-1.047 6.104-3.109 8.275l1.45 1.378c2.451-2.581 3.66-5.824 3.66-9.653h-2zm-3.109 8.276c-2.01 2.117-4.752 3.216-8.347 3.216v2c4.038 0 7.344-1.253 9.798-3.84l-1.45-1.376zm-8.347 3.216c-3.568 0-6.314-1.097-8.35-3.22l-1.443 1.384c2.475 2.581 5.777 3.836 9.793 3.836v-2zm-8.343-3.213c-2.039-2.17-3.077-4.905-3.077-8.279h-2c0 3.826 1.195 7.067 3.62 9.649l1.457-1.37zm-3.077-8.279c0-3.375 1.038-6.095 3.074-8.24l-1.45-1.376c-2.43 2.559-3.624 5.79-3.624 9.616h2zm3.074-8.24c2.037-2.145 4.782-3.252 8.346-3.252v-2c-4.019 0-7.322 1.269-9.797 3.875l1.45 1.378zm8.346-3.252c3.592 0 6.333 1.108 8.344 3.249l1.457-1.37c-2.453-2.611-5.76-3.879-9.8-3.879v2zm8.35 3.256c2.059 2.146 3.106 4.865 3.106 8.236h2c0-3.829-1.208-7.062-3.662-9.62l-1.443 1.384zM34.94 25.28c2.637 0 4.697-1.117 6.04-3.325 1.292-2.127 1.872-5.19 1.872-9.051h-2c0 3.723-.571 6.348-1.582 8.013-.962 1.583-2.358 2.363-4.33 2.363v2zm7.912-12.376c0-3.72-.534-6.72-1.702-8.897l-1.763.946c.944 1.758 1.465 4.375 1.465 7.951h2zm-1.698-8.888c-.599-1.142-1.437-2.031-2.518-2.626C37.56.799 36.303.528 34.903.528v2c1.145 0 2.053.221 2.767.614.707.389 1.279.976 1.712 1.802l1.771-.928zM34.903.528c-2.85 0-5.03 1.134-6.312 3.47l1.753.963c.878-1.6 2.321-2.433 4.56-2.433v-2zm-6.317 3.48c-1.168 2.177-1.703 5.176-1.703 8.896h2c0-3.576.522-6.193 1.466-7.951l-1.763-.946zm-1.703 8.896c0 3.863.594 6.93 1.915 9.06 1.37 2.208 3.466 3.316 6.141 3.316v-2c-2.028 0-3.46-.788-4.442-2.371-1.03-1.662-1.614-4.284-1.614-8.005h-2zm46.156 8.964l-.725-.689.725.689zm-18.144 0l-.729.685.007.007.722-.692zm0-17.892l-.725-.689.725.689zm18.144 0l-.729.685.007.007.722-.692zm-3.672.504l-.886.464.005.009.881-.473zm-10.8 0l-.877-.481-.004.008.881.473zm16.856 8.424c0 3.371-1.048 6.104-3.11 8.275l1.451 1.378c2.45-2.581 3.659-5.824 3.659-9.653h-2zm-3.11 8.276c-2.01 2.117-4.752 3.216-8.346 3.216v2c4.038 0 7.343-1.253 9.797-3.84l-1.45-1.376zm-8.346 3.216c-3.568 0-6.314-1.097-8.35-3.22l-1.444 1.384c2.476 2.581 5.778 3.836 9.794 3.836v-2zm-8.343-3.213c-2.04-2.17-3.077-4.905-3.077-8.279h-2c0 3.826 1.194 7.067 3.62 9.649l1.457-1.37zm-3.077-8.279c0-3.375 1.038-6.095 3.073-8.24l-1.45-1.376c-2.429 2.559-3.623 5.79-3.623 9.616h2zm3.073-8.24c2.037-2.145 4.782-3.252 8.347-3.252v-2c-4.02 0-7.322 1.269-9.797 3.875l1.45 1.378zm8.347-3.252c3.591 0 6.333 1.108 8.343 3.249l1.458-1.37C71.314.68 68.008-.588 63.967-.588v2zm8.35 3.256c2.058 2.146 3.106 4.865 3.106 8.236h2c0-3.829-1.208-7.062-3.662-9.62l-1.444 1.384zM64.04 25.28c2.637 0 4.697-1.117 6.039-3.325 1.292-2.127 1.873-5.19 1.873-9.051h-2c0 3.723-.571 6.348-1.583 8.013-.962 1.583-2.358 2.363-4.329 2.363v2zm7.912-12.376c0-3.72-.534-6.72-1.703-8.897l-1.762.946c.943 1.758 1.465 4.375 1.465 7.951h2zm-1.698-8.888c-.6-1.142-1.438-2.031-2.519-2.626C66.66.799 65.403.528 64.003.528v2c1.144 0 2.053.221 2.767.614.707.389 1.278.976 1.711 1.802l1.772-.928zM64.003.528c-2.85 0-5.03 1.134-6.313 3.47l1.754.963c.877-1.6 2.321-2.433 4.559-2.433v-2zm-6.317 3.48c-1.169 2.177-1.703 5.176-1.703 8.896h2c0-3.576.522-6.193 1.465-7.951l-1.762-.946zm-1.703 8.896c0 3.863.593 6.93 1.914 9.06 1.37 2.208 3.467 3.316 6.142 3.316v-2c-2.029 0-3.46-.788-4.442-2.371-1.031-1.662-1.614-4.284-1.614-8.005h-2zM79.934 25h-1v1h1v-1zm0-.864l-.115-.993-.885.102v.891h1zm3.096-.36l.116.993.884-.102v-.891h-1zm0-21.564h1v-.87l-.862-.12-.138.99zm-3.096-.432h-1v.87l.862.12.138-.99zm0-.936L80-.154l-1.065-.07V.845h1zm7.308.108v1h.032l-.032-1zm4.464-.144v-1h-.032l.032 1zm5.724.54l-.215.977h.003l.212-.977zm4.536 1.836l.535-.845h-.001l-.534.845zm-3.564 1.152l-.738.674.01.011.01.011.718-.696zm-1.404-1.224l-.555.832.017.011.017.01.521-.853zm-1.62-.648l-.236.972.01.002.01.002.216-.976zm-3.132-.396l.04-1h-.04v1zm-4.392.18l-.145-.99-.855.126v.864h1zm0 21.492h-1v.968l.968.032.032-1zm3.348.108l-.032 1h.074l-.042-1zm5.076-.936l-.43-.903h-.001l.431.903zm8.9-9.972c0 3.802-1.169 6.493-3.371 8.266C99.564 23.012 96.087 24 91.202 24v2c5.1 0 9.11-1.023 11.859-3.236 2.791-2.247 4.117-5.586 4.117-9.824h-2zM91.202 24H79.934v2h11.268v-2zm-10.268 1v-.864h-2V25h2zm-.884.13l3.096-.36-.231-1.987-3.096.36.23 1.986zm3.98-1.354V2.212h-2v21.564h2zm-.862-22.554L80.072.79l-.276 1.98 3.096.432.276-1.98zm-2.234.558V.844h-2v.936h2zm-1.065.062a60.87 60.87 0 003.917.11v-2c-1.449 0-2.71-.036-3.787-.106l-.13 1.996zm3.917.11h3.456v-2h-3.456v2zm3.488 0l4.464-.145-.064-1.998-4.464.144.064 1.998zm4.432-.144c2.132 0 3.965.176 5.509.517l.43-1.954c-1.72-.379-3.703-.563-5.939-.563v2zm5.512.517c1.547.337 2.949.906 4.214 1.704l1.068-1.69A14.979 14.979 0 0097.642.37l-.424 1.954zm4.214 1.704c2.405 1.522 3.746 4.368 3.746 8.911h2c0-4.913-1.467-8.57-4.677-10.601l-1.069 1.69zm.31 8.947c0-4.213-.779-7.436-2.622-9.336l-1.436 1.392c1.277 1.316 2.058 3.853 2.058 7.944h2zm-2.601-9.314c-.54-.592-1.08-1.073-1.622-1.403l-1.042 1.706c.323.198.719.533 1.187 1.045l1.477-1.348zM97.553 2.28c-.56-.373-1.221-.629-1.958-.792l-.434 1.952c.56.125.977.3 1.282.504l1.11-1.664zm-1.939-.788c-.968-.235-2.081-.373-3.328-.423l-.08 1.998c1.153.046 2.129.172 2.936.369l.472-1.944zm-3.368-.424h-.54v2h.54v-2zm-.54 0c-1.76 0-3.105.06-3.997.19l.29 1.98c.74-.11 1.962-.17 3.707-.17v-2zm-4.852 1.18V23.74h2V2.248h-2zm.968 22.491l3.348.108.064-1.998-3.348-.108-.064 1.998zm3.422.108c2.319-.098 4.175-.416 5.466-1.033l-.863-1.804c-.918.439-2.445.744-4.687.839l.084 1.998zm5.464-1.032c3.502-1.666 5.034-5.492 5.034-10.839h-2c0 5.069-1.444 7.867-3.894 9.033l.86 1.806zM120.824 25v1h1v-1h-1zm-11.052 0h-1v1h1v-1zm0-.864l-.103-.995-.897.093v.902h1zm3.132-.324l.103.995.897-.093v-.902h-1zm0-21.672h1v-.902l-.897-.093-.103.995zm-3.132-.324h-1v.902l.897.093.103-.995zm0-.864v-1h-1v1h1zm11.052 0h1v-1h-1v1zm0 .864l.103.995.897-.093v-.902h-1zm-3.132.324l-.103-.995-.897.093v.902h1zm0 21.672h-1v.902l.897.093.103-.995zm3.132.324h1v-.902l-.897-.093-.103.995zm0-.136h-11.052v2h11.052v-2zm-10.052 1v-.864h-2V25h2zm-.897.13l3.132-.323-.206-1.99-3.132.324.206 1.99zm4.029-1.318V2.14h-2v21.672h2zm-.897-22.667l-3.132-.324-.206 1.99 3.132.324.206-1.99zm-2.235.671V.952h-2v.864h2zm-1 .136h11.052v-2h-11.052v2zm10.052-1v.864h2V.952h-2zm.897-.13l-3.132.323.206 1.99 3.132-.324-.206-1.99zm-4.029 1.318v21.672h2V2.14h-2zm.897 22.667l3.132.324.206-1.99-3.132-.324-.206 1.99zm2.235-.671V25h2v-.864h-2zm4.458.864h-1v1h1v-1zm0-.864l-.103-.995-.897.093v.902h1zm3.132-.324l.102.995.898-.093v-.902h-1zm0-21.672h1v-.902l-.898-.093-.102.995zm-3.132-.324h-1v.902l.897.093.103-.995zm0-.864v-1h-1v1h1zm18.36 0h1v-1h-1v1zm0 5.112v1h1v-1h-1zm-1.152 0l-.939.345.241.655h.698v-1zm-1.404-3.816l.938-.345-.237-.645-.688-.01-.013 1zm-7.884-.108l.013-1-1.013-.014V2.14h1zm0 9.684h-1v1h1v-1zm6.984 0v1h.665l.257-.614-.922-.386zm1.116-2.664v-1h-.666l-.257.614.923.386zm1.008 0h1v-1h-1v1zm0 6.696v1h1v-1h-1zm-1.044 0l-.931.367.25.633h.681v-1zm-1.08-2.736l.93-.367-.25-.633h-.68v1zm-6.984 0v-1h-1v1h1zm0 10.728h-1v1.012l1.012-.012-.012-1zm8.964-.108l.012 1 .634-.008.263-.577-.909-.415zm1.872-4.104v-1h-.643l-.267.585.91.415zm1.152 0l.996.08.087-1.08h-1.083v1zM143.758 25v1h.922l.074-.92-.996-.08zm-18.476 0v-.864h-2V25h2zm-.898.13l3.132-.323-.205-1.99-3.132.324.205 1.99zm4.03-1.318V2.14h-2v21.672h2zm-.898-22.667l-3.132-.324-.205 1.99 3.132.324.205-1.99zm-2.234.671V.952h-2v.864h2zm-1 .136h18.36v-2h-18.36v2zm17.36-1v5.112h2V.952h-2zm1 4.112h-1.152v2h1.152v-2zm-.214.655l-1.404-3.816-1.877.69 1.404 3.816 1.877-.69zm-2.329-4.47l-7.884-.109-.027 2 7.884.108.027-2zm-8.897.891v9.684h2V2.14h-2zm1 10.684h6.984v-2h-6.984v2zm7.906-.614l1.116-2.664-1.845-.772-1.116 2.664 1.845.772zm.194-2.05h1.008v-2h-1.008v2zm.008-1v6.696h2V9.16h-2zm1 5.696h-1.044v2h1.044v-2zm-.114.633l-1.08-2.736-1.861.734 1.08 2.736 1.861-.734zm-2.01-3.369h-6.984v2h6.984v-2zm-7.984 1v10.728h2V13.12h-2zm1.012 11.728l8.964-.108-.024-2-8.964.108.024 2zm9.861-.693l1.872-4.104-1.819-.83-1.872 4.104 1.819.83zm.963-3.519h1.152v-2h-1.152v2zm.155-1.08l-.432 5.364 1.993.16.432-5.364-1.993-.16zm.565 4.444h-19.476v2h19.476v-2zm5.3-.224l-.541.841.003.002.538-.843zm1.8-5.076l.986-.17-.167-.966-.969.147.15.989zm2.448 4.644l.571-.82-.002-.002-.569.822zm6.696.036l.642.767.002-.002-.644-.765zm-.036-6.804l-.644.765.011.009.011.009.622-.783zm-3.492-2.016l.377-.926-.377.926zm-2.88-1.188l-.43.903.018.008.018.008.394-.919zm-1.944-1.044l-.511.86.012.007.499-.867zm-1.728-1.296l-.755.656.013.015.014.014.728-.685zm1.08-8.928l-.566-.825.566.825zm12.96-1.152h1V.108l-.832-.142-.168.986zm0 5.328v1h1v-1h-1zm-1.188 0l-.947.321.23.679h.717v-1zm-1.44-4.248l.947-.321-.162-.478-.48-.153-.305.952zm-6.876.612l.644.765.006-.005.006-.005-.656-.755zm1.008 7.38l-.479.878.011.006.01.005.458-.889zm2.808 1.224l.353-.935-.353.935zm2.34.936l-.41.912.019.009.02.008.371-.929zm1.908.972l-.499.867.01.005.01.006.479-.878zm1.764 1.296l-.747.664.747-.664zm1.044 1.728l-.918.398.006.011.912-.409zm-2.124 7.308l-.6-.8.6.8zm-13.607-.553c-.785-.505-1.053-1.044-1.053-1.643h-2c0 1.417.74 2.534 1.971 3.325l1.082-1.682zm-1.053-1.643c0-.386.132-.66.444-.905.359-.28.994-.542 2.018-.698l-.3-1.978c-1.183.18-2.205.519-2.95 1.102-.792.62-1.212 1.473-1.212 2.479h2zm1.326-2.422c.408 2.367 1.308 4.218 2.865 5.296l1.138-1.644c-.938-.65-1.671-1.895-2.031-3.992l-1.972.34zm2.863 5.295c1.254.873 2.615 1.331 4.063 1.331v-2c-1 0-1.967-.31-2.921-.973l-1.142 1.642zm4.063 1.331c1.463 0 2.764-.443 3.846-1.35l-1.284-1.533c-.694.582-1.529.883-2.562.883v2zm3.848-1.351c1.225-1.031 1.724-2.622 1.724-4.509h-2c0 1.57-.413 2.474-1.012 2.98l1.288 1.529zm1.724-4.509c0-1.572-.585-2.892-1.782-3.843l-1.244 1.566c.675.537 1.026 1.256 1.026 2.277h2zm-1.76-3.825c-1.011-.851-2.272-1.572-3.759-2.177l-.754 1.852c1.345.547 2.412 1.17 3.225 1.855l1.288-1.53zm-3.759-2.177a202.686 202.686 0 01-2.863-1.181l-.788 1.838c.514.22 1.482.62 2.897 1.195l.754-1.852zm-2.827-1.165a28.619 28.619 0 01-1.875-1.008l-.998 1.734a30.6 30.6 0 002.013 1.08l.86-1.806zm-1.863-1c-.73-.434-1.217-.81-1.511-1.122l-1.456 1.37c.474.504 1.139.992 1.945 1.47l1.022-1.719zm-1.484-1.093c-.805-.925-1.195-1.965-1.195-3.16h-2c0 1.685.57 3.19 1.685 4.472l1.51-1.312zm-1.195-3.16c0-1.968.71-3.344 2.086-4.287l-1.132-1.65c-1.984 1.361-2.954 3.393-2.954 5.937h2zm2.086-4.287c1.451-.996 3.565-1.553 6.454-1.553v-2c-3.111 0-5.677.595-7.586 1.903l1.132 1.65zm6.454-1.553c1.632 0 3.554.184 5.772.562l.336-1.972c-2.294-.39-4.332-.59-6.108-.59v2zm4.94-.424V6.28h2V.952h-2zm1 4.328h-1.188v2h1.188v-2zm-.241.679l-1.44-4.248-1.894.642 1.44 4.248 1.894-.642zm-2.082-4.88a12.984 12.984 0 00-3.977-.623v2c1.144 0 2.265.176 3.367.528l.61-1.904zm-3.977-.623c-1.461 0-2.763.48-3.86 1.433l1.312 1.51c.727-.632 1.561-.943 2.548-.943v-2zm-3.848 1.423c-1.199 1.01-1.724 2.481-1.724 4.221h2c0-1.332.387-2.165 1.012-2.691l-1.288-1.53zM152.09 6.1c0 1.031.235 1.981.739 2.813.502.83 1.239 1.488 2.158 1.989l.958-1.756c-.665-.363-1.116-.791-1.406-1.269-.288-.476-.449-1.056-.449-1.777h-2zm2.918 4.813c.834.43 1.807.853 2.913 1.27l.706-1.87a26.107 26.107 0 01-2.703-1.178l-.916 1.778zm2.913 1.27c1.077.408 1.833.71 2.283.913l.82-1.824c-.51-.23-1.314-.55-2.397-.96l-.706 1.872zm2.322.93c.415.165 1.003.462 1.78.91l.998-1.734c-.807-.464-1.491-.816-2.036-1.034l-.742 1.857zm1.8.92c.741.405 1.219.772 1.496 1.083l1.494-1.328c-.491-.553-1.189-1.05-2.032-1.51l-.958 1.756zm1.496 1.083c.293.33.59.807.873 1.462l1.836-.796c-.341-.785-.74-1.46-1.215-1.994l-1.494 1.328zm.879 1.473c.248.555.38 1.182.38 1.895h2c0-.967-.18-1.876-.555-2.713l-1.825.818zm.38 1.895c0 1.704-.699 3.084-2.192 4.204l1.2 1.6c1.963-1.472 2.992-3.428 2.992-5.804h-2zm-2.192 4.204c-1.499 1.124-3.626 1.744-6.492 1.744v2c3.134 0 5.735-.676 7.692-2.144l-1.2-1.6zm-6.492 1.744c-2.867 0-5.007-.534-6.518-1.499l-1.076 1.686c1.945 1.243 4.509 1.813 7.594 1.813v-2z" mask="url(#prefix__a)"/>
    </g>
</svg>
