<svg width="35" height="35" viewBox="0 0 35 35" fill="none" xmlns="http://www.w3.org/2000/svg">
<circle cx="17.5" cy="17.5" r="17.5" fill="white"/>
<circle cx="17.5" cy="17.5" r="17" stroke="#306754" stroke-opacity="0.7"/>
<path d="M19.6129 23.7625L14.1774 18.4433C14.1129 18.3799 14.0673 18.3113 14.0406 18.2375C14.0135 18.1636 14 18.0844 14 18C14 17.9156 14.0135 17.8364 14.0406 17.7625C14.0673 17.6887 14.1129 17.6201 14.1774 17.5567L19.6129 12.2216C19.7634 12.0739 19.9516 12 20.1774 12C20.4032 12 20.5968 12.0792 20.7581 12.2375C20.9194 12.3958 21 12.5805 21 12.7916C21 13.0026 20.9194 13.1873 20.7581 13.3456L16.0161 18L20.7581 22.6544C20.9086 22.8021 20.9839 22.9841 20.9839 23.2002C20.9839 23.4168 20.9032 23.6042 20.7419 23.7625C20.5806 23.9208 20.3925 24 20.1774 24C19.9624 24 19.7742 23.9208 19.6129 23.7625Z" fill="#306754" fill-opacity="0.7"/>
</svg>
